<svg xmlns="http://www.w3.org/2000/svg" viewBox="0 0 150 150">
  <g transform="translate(0, 45) scale(0.994, 0.994)">
    <path fill="#005cb9" fill-rule="evenodd" d="M0,48.4V13.7h10.3v23.9h23.3s9.4-3.8,9.4-13.6-7.9-13.1-11.1-13.1-19.1,0-19.1,0V0h22.5s12.6,1.6,16.1,17c3.4,15.4-7.4,31.4-18.3,31.4H0ZM150.7,34.1h-23.3c0,0-.4,7.4,7.6,7.6,7.9.2,8.5-5,8.5-5h7.2s-.3,2.4-2.2,5c-2.5,3.5-8.1,7.6-15.5,6.7-19.4-2.5-16.8-29.8,1.4-31.6,5.4-.5,17.8,3.5,16.3,17.3h0ZM143.8,31.4s-.5-5.2-6.3-6.6c-5.8-1.3-10.1,3.1-10.1,6.6h16.4ZM95.8,16.8l6.7,20.8,7.2-20.8h8.6l-16.6,43.4h-7.7l4.1-13.8-10.1-29.6h7.7ZM85.4,34.1h-23.3c0,0-.4,7.4,7.6,7.6,7.9.2,8.5-5,8.5-5h7.2s-.2,2.4-2.1,5c-2.5,3.5-8.2,7.6-15.6,6.7-19.4-2.5-16.8-29.8,1.4-31.6,5.4-.5,17.9,3.5,16.3,17.3h0ZM78.5,31.4s-.5-5.2-6.4-6.6c-5.8-1.3-10.1,3.1-10.1,6.6h16.4Z"/>
    <rect fill="#e1251b" x="0" y="0" width="10.2" height="10.8"/>
  </g>
</svg>